<?xml version="1.0" encoding="utf-8"?>
<!-- Generator: Adobe Illustrator 16.0.0, SVG Export Plug-In . SVG Version: 6.00 Build 0)  -->
<!DOCTYPE svg PUBLIC "-//W3C//DTD SVG 1.1//EN" "http://www.w3.org/Graphics/SVG/1.1/DTD/svg11.dtd">
<svg version="1.1" id="Layer_1" xmlns="http://www.w3.org/2000/svg" xmlns:xlink="http://www.w3.org/1999/xlink" x="0px" y="0px"
	 width="960px" height="200px" viewBox="0 0 960 200" enable-background="new 0 0 960 200" xml:space="preserve">
<rect x="-29" fill="#FCF4E8" width="1020" height="200"/>
<path d="M356.831,74.004c0-0.927,0.163-1.798,0.381-2.67l3.324-12.694c0.108-0.381,0.163-0.763,0.163-1.145
	c0-2.56-2.07-4.576-4.576-4.631h-0.055c-2.506,0.055-4.576,2.071-4.576,4.631v26.805h-5.721V57.496
	c0-5.611,4.631-10.351,10.297-10.351c0,0,0,0,0.055,0c5.666,0,10.297,4.74,10.297,10.351c0,0.927-0.109,1.798-0.327,2.615
	l-3.377,12.694c-0.109,0.381-0.164,0.763-0.164,1.199c0,2.56,2.125,4.577,4.631,4.577c2.506,0,4.577-2.071,4.577-4.577
	c0-0.436-0.055-0.817-0.164-1.199c-3.324-12.694-3.324-12.694-3.324-12.694c-0.218-0.817-0.327-1.688-0.327-2.615
	c0-5.666,4.576-10.351,10.297-10.351s10.297,4.686,10.297,10.351v26.805h-5.721V57.496c0-2.615-2.016-4.576-4.576-4.631
	c-2.561,0.055-4.576,2.016-4.576,4.631c0,0.381,0,0.763,0.109,1.145c3.378,12.694,3.378,12.694,3.378,12.694
	c0.218,0.872,0.326,1.743,0.326,2.67c0,5.666-4.576,10.351-10.296,10.296C361.516,84.355,356.831,79.67,356.831,74.004z"/>
<path d="M413.36,85.173c-10.079,0-18.851-8.989-18.851-19.613c0-10.024,8.826-19.45,18.851-19.45
	c10.134,0,18.905,9.425,18.905,19.559C432.266,76.184,423.44,85.173,413.36,85.173z M400.231,65.668
	c0,7.083,5.992,13.784,13.129,13.784s13.185-6.646,13.185-13.784c0-7.191-6.047-13.838-13.185-13.838S400.231,58.531,400.231,65.668
	z"/>
<path d="M464.682,84.301h-7.41l-13.238-15.745h-0.6v15.745h-5.72V47.145h13.347c5.938,0,10.733,4.74,10.733,10.678
	c0,5.775-4.522,10.515-10.297,10.733L464.682,84.301z M451.062,62.835c2.779,0,5.013-2.233,5.013-5.012
	c0-2.724-2.234-4.958-5.013-4.958h-7.627v9.97H451.062z"/>
<path d="M501.402,62.89v16.507c-2.07,2.452-7.846,5.884-14.654,5.884c-10.135,0-19.451-9.479-19.451-19.558
	c-0.381-10.352,8.935-19.777,19.451-19.559c2.668,0,5.175,0.49,10.132,2.56l-2.124,5.285c-4.359-1.798-6.102-2.125-8.008-2.125
	c-7.411-0.164-14.111,6.483-13.73,13.838c0,7.464,6.647,13.838,13.73,13.838c2.723,0,7.027-1.417,8.934-3.105V68.61h-11.768v-5.72
	H501.402z"/>
<path d="M539.594,84.301h-6.049l-2.996-8.172h-15.854l-2.941,8.172h-6.104l13.512-37.156h6.92L539.594,84.301z M528.425,70.408
	l-5.829-16.018l-5.83,16.018H528.425z"/>
<path d="M574.68,74.385c0,5.503-4.469,9.916-9.916,9.916c-5.449,0-9.916-4.467-9.916-9.916c0-0.871,0.109-1.743,0.328-2.561
	l3.648-13.729c0.109-0.327,0.164-0.708,0.164-1.09c0-2.288-1.906-4.141-4.195-4.141c-2.287,0-4.195,1.853-4.195,4.141v27.295h-5.721
	V57.006c0-5.502,4.469-9.861,9.916-9.861c5.449,0,9.916,4.358,9.916,9.861c0,0.872-0.109,1.744-0.326,2.561
	c-3.65,13.729-3.65,13.729-3.65,13.729c-0.109,0.327-0.164,0.708-0.164,1.089c0,2.234,1.961,4.196,4.195,4.196
	c2.289,0,4.141-1.907,4.195-4.196v-27.24h5.721V74.385z"/>
<path d="M588.299,78.581h13.348v5.72h-19.068V47.145h19.068v5.72h-13.348V62.89h13.348v5.72h-13.348V78.581z"/>
<path d="M345.785,93.238v-4.188h256.651v4.188H345.785z"/>
<path d="M356.396,139.624h-9.483c0,0.045,0-30.796,0-30.796h9.483c8.489,0,15.397,6.908,15.397,15.397
	S364.885,139.624,356.396,139.624z M356.396,113.569h-4.742v21.313h4.742c5.87,0,10.701-4.786,10.656-10.657
	C367.052,118.266,362.266,113.569,356.396,113.569z"/>
<path d="M371.98,105.581c-0.18-1.536,0.903-2.8,2.438-2.98c1.536-0.136,2.845,0.903,2.98,2.438c0.135,1.536-0.949,2.891-2.484,3.025
	C373.38,108.2,372.115,107.115,371.98,105.581z M376.044,113.393c1.761,4.335,2.303,6.547,2.528,8.805
	c0.498,4.831-0.767,9.663-4.515,15.895l4.064,2.438c4.29-6.999,5.735-12.959,5.147-18.785c-0.271-2.754-0.903-5.419-2.844-10.158
	L376.044,113.393z"/>
<path d="M393.791,134.796h11.062v4.741H389.05v-30.796h15.804v4.741h-11.062v8.309h11.062v4.741h-11.062V134.796z"/>
<path fill="#FC5454" d="M410.726,123.281v-14.54h14.223c0,14.54,0,14.54,0,14.54c0,1.128,0.858,2.258,1.987,2.258
	c1.039,0,2.032-1.13,1.942-2.258v-14.54h14.224c0,14.54,0,14.54,0,14.54c0,8.489-7.089,17.067-16.166,17.067
	C417.815,140.349,410.726,131.815,410.726,123.281z M438.361,123.281v-9.799h-4.741c0,9.844,0,9.844,0,9.889
	c0,3.657-3.07,6.909-6.729,6.909c-3.658,0-6.728-3.387-6.683-6.999v-9.799h-4.741c0,9.799,0,9.799,0,9.799
	c0,6.367,4.967,12.326,11.469,12.326C433.077,135.607,438.767,129.604,438.361,123.281z"/>
<path d="M458.458,139.537h-9.481c0,0.045,0-30.796,0-30.796h9.481c8.489,0,15.398,6.908,15.398,15.397
	C473.855,132.627,466.947,139.537,458.458,139.537z M458.458,113.482h-4.74v21.313h4.74c5.871,0,10.702-4.787,10.657-10.657
	C469.114,118.179,464.328,113.482,458.458,113.482z"/>
<path d="M492.191,140.259c-8.354,0-15.624-7.45-15.624-16.256c0-8.308,7.315-16.119,15.624-16.119
	c8.398,0,15.668,7.812,15.668,16.209C507.859,132.809,500.545,140.259,492.191,140.259z M481.309,124.093
	c0,5.871,4.967,11.425,10.883,11.425c5.914,0,10.927-5.509,10.927-11.425c0-5.959-5.013-11.468-10.927-11.468
	C486.275,112.625,481.309,118.179,481.309,124.093z"/>
<path d="M539.969,139.537h-6.232l-17.293-24.7v24.7h-4.742v-30.796h6.275l17.25,24.654v-24.654h4.742V139.537z"/>
<path d="M574.107,139.537h-6.232l-17.293-24.7v24.7h-4.74v-30.796h6.275l17.25,24.654v-24.654h4.74V139.537z"/>
<path d="M583.91,117.14c0.18,1.311,0.541,2.167,1.082,3.251c2.213-1.354,4.787-2.032,7.045-2.032c3.521,0,6.275,2.213,6.275,5.329
	c0,3.025-2.754,5.283-6.275,5.283c-2.439,0-5.057-0.677-7.225-2.123c-0.633,0.948-0.994,1.987-0.994,3.252
	c0,2.167,2.033,5.418,7.676,5.418c2.213,0,5.059-0.542,8.445-1.941l2.166-0.902l1.854,4.379c-6.098,2.484-9.529,3.206-12.51,3.206
	c-6.412,0-12.371-3.838-12.371-10.159c0-2.62,0.902-4.787,2.303-6.593c-1.896-3.07-2.303-5.193-2.303-9.393l18.965-8.579
	l1.986,4.334L583.91,117.14z M593.662,97.542l1.986,4.29l-9.029,4.199l-1.988-4.289L593.662,97.542z M589.012,123.688
	c0.994,0.36,2.031,0.542,3.025,0.542c2.213,0,2.213-1.13,0-1.13C591.18,123.1,590.096,123.281,589.012,123.688z"/>
<path d="M346.929,148.937v-4.187h256.792v4.187H346.929z"/>
</svg>
