<?xml version="1.0" encoding="utf-8"?>
<!-- Generator: Adobe Illustrator 16.0.0, SVG Export Plug-In . SVG Version: 6.00 Build 0)  -->
<!DOCTYPE svg PUBLIC "-//W3C//DTD SVG 1.1//EN" "http://www.w3.org/Graphics/SVG/1.1/DTD/svg11.dtd">
<svg version="1.1" id="Layer_1" xmlns="http://www.w3.org/2000/svg" xmlns:xlink="http://www.w3.org/1999/xlink" x="0px" y="0px"
	 width="100px" height="100px" viewBox="377 377 100 100" enable-background="new 377 377 100 100" xml:space="preserve">
<path d="M418.63,435.258c0,4.309-3.125,5.67-6.965,5.67h-10.067V429.12h10.268C416.018,429.143,418.63,430.86,418.63,435.258
	L418.63,435.258z M416.911,416.888c0-3.951-3.058-4.888-6.451-4.888h-8.839v10h9.531C414.522,422,416.911,420.527,416.911,416.888
	L416.911,416.888z M446.441,422.067c-4.083,0-6.808,2.544-7.075,6.628h13.884C452.87,424.567,450.728,422.067,446.441,422.067
	L446.441,422.067z M477,387.713v78.572c0,5.917-4.799,10.715-10.715,10.715h-78.571c-5.915,0-10.714-4.798-10.714-10.715v-78.572
	c0-5.915,4.799-10.713,10.714-10.713h78.571C472.201,377,477,381.798,477,387.713z M437.647,411.151h17.366v-4.218h-17.366V411.151z
	 M428.049,435.771c0-5.379-2.544-10.021-7.812-11.518c3.839-1.83,5.848-3.951,5.848-8.258c0-8.527-6.362-10.603-13.705-10.603
	h-20.201v42.858h20.781C420.75,448.206,428.049,444.478,428.049,435.771z M461.821,432.469c0-9.174-5.379-16.831-15.09-16.831
	c-9.463,0-15.869,7.099-15.869,16.43c0,9.664,6.094,16.295,15.869,16.295c7.411,0,12.211-3.326,14.532-10.446h-7.522
	c-0.826,2.655-4.151,4.038-6.741,4.038c-4.999,0-7.611-2.923-7.611-7.879h22.366C461.777,433.562,461.821,433.005,461.821,432.469
	L461.821,432.469z"/>
</svg>
