<?xml version="1.0" encoding="utf-8"?>
<!-- Generator: Adobe Illustrator 16.0.0, SVG Export Plug-In . SVG Version: 6.00 Build 0)  -->
<!DOCTYPE svg PUBLIC "-//W3C//DTD SVG 1.1//EN" "http://www.w3.org/Graphics/SVG/1.1/DTD/svg11.dtd">
<svg version="1.1" id="Layer_1" xmlns="http://www.w3.org/2000/svg" xmlns:xlink="http://www.w3.org/1999/xlink" x="0px" y="0px"
	 width="100px" height="100px" viewBox="377 377 100 100" enable-background="new 377 377 100 100" xml:space="preserve">
<path d="M427.095,401.194c-14.188,0-25.633,11.447-25.633,25.639c0,14.192,11.445,25.639,25.633,25.639s25.633-11.446,25.633-25.639
	C452.728,412.642,441.283,401.194,427.095,401.194z M427.095,443.502c-9.169,0-16.665-7.476-16.665-16.669
	s7.474-16.668,16.665-16.668s16.665,7.475,16.665,16.668S436.264,443.502,427.095,443.502L427.095,443.502z M459.755,400.146
	c0,3.325-2.677,5.98-5.979,5.98c-3.324,0-5.979-2.678-5.979-5.98c0-3.302,2.678-5.98,5.979-5.98S459.755,396.843,459.755,400.146z
	 M476.732,406.215c-0.38-8.011-2.209-15.107-8.076-20.953c-5.845-5.846-12.939-7.676-20.948-8.078
	c-8.254-0.468-32.995-0.468-41.249,0c-7.987,0.379-15.081,2.209-20.948,8.056c-5.867,5.846-7.674,12.942-8.076,20.953
	c-0.468,8.256-0.468,33.002,0,41.258c0.379,8.011,2.209,15.106,8.076,20.953c5.867,5.846,12.939,7.676,20.948,8.077
	c8.254,0.469,32.995,0.469,41.249,0c8.009-0.379,15.104-2.209,20.948-8.077c5.845-5.847,7.674-12.942,8.076-20.953
	C477.2,439.195,477.2,414.471,476.732,406.215z M466.068,456.31c-1.74,4.374-5.108,7.743-9.504,9.506
	c-6.581,2.611-22.197,2.009-29.47,2.009c-7.273,0-22.912,0.58-29.47-2.009c-4.373-1.74-7.741-5.109-9.504-9.506
	c-2.61-6.582-2.008-22.202-2.008-29.477c0-7.274-0.58-22.916,2.008-29.477c1.74-4.374,5.109-7.743,9.504-9.506
	c6.581-2.61,22.197-2.008,29.47-2.008c7.272,0,22.911-0.58,29.47,2.008c4.373,1.741,7.741,5.11,9.504,9.506
	c2.61,6.583,2.008,22.203,2.008,29.477C468.076,434.107,468.679,449.75,466.068,456.31z"/>
</svg>
